<?xml version="1.0" encoding="UTF-8"?>
<svg width="734px" height="715px" viewBox="0 0 734 715" version="1.1" xmlns="http://www.w3.org/2000/svg" xmlns:xlink="http://www.w3.org/1999/xlink">
    <!-- Generator: Sketch 51.2 (57519) - http://www.bohemiancoding.com/sketch -->
    <title>Shape</title>
    <desc>Created with Sketch.</desc>
    <defs></defs>
    <g id="Page-1" stroke="none" stroke-width="1" fill="none" fill-rule="evenodd" opacity="0.1">
        <g id="Desktop-HD-Copy" transform="translate(-23.000000, -178.000000)" fill="#48DEFF" fill-rule="nonzero">
            <path d="M706.627734,565.853468 C677.490112,620.895636 681.459586,694.906131 692.807518,753.061486 C696.6004,772.531665 701.015191,793.039572 697.084107,815.053037 C692.277743,841.93192 676.123447,863.324449 659.930761,875.70915 C630.416922,898.292515 597.171625,898.454129 573.370142,876.134449 C552.801055,856.842896 539.641138,822.682897 518.611376,804.454591 C483.423571,773.960669 434.093079,794.094313 390.99704,824.367081 C360.508108,845.785127 326.90195,872.808612 299.338297,858.603633 C279.943928,848.609111 268.258168,819.399591 263.129332,787.434134 C260.649371,772.004294 259.290383,755.111427 253.186455,743.449734 C249.554809,736.517364 244.479719,731.941149 239.205003,728.215531 C191.01084,694.191629 124.451145,725.144874 78.0843209,686.468203 C46.7661764,660.346352 29.6674983,605.304183 24.7766775,546.119604 C19.8858567,486.935025 25.8899727,423.352857 33.1148744,360.689334 C38.2513879,316.177564 44.9849041,268.484558 65.1624192,231.900357 C86.5069746,193.198167 119.399088,175.369642 147.653752,178.31271 C175.908415,181.255777 200.124504,202.129442 220.862506,227.800476 C246.77541,259.902029 269.931949,301.121987 304.029493,310.878341 C327.255133,317.521508 352.906989,308.607245 377.798734,303.316528 C419.405261,294.470314 460.251676,295.780234 500.798654,297.787644 C539.618104,299.709995 578.660214,302.329835 614.585097,317.819217 C640.006616,328.78342 659.247428,352.387502 682.918386,367.477103 C698.327927,377.310011 715.894957,378.194632 730.175846,391.455448 C747.773588,407.795428 762.707098,438.365904 754.852609,477.620982 C747.382015,514.970721 722.121731,536.635441 706.627734,565.853468 Z" id="Shape"></path>
        </g>
    </g>
</svg>