<?xml version="1.0" encoding="UTF-8"?>
<svg width="499px" height="430px" viewBox="0 0 499 430" version="1.1" xmlns="http://www.w3.org/2000/svg" xmlns:xlink="http://www.w3.org/1999/xlink">
    <!-- Generator: Sketch 51.2 (57519) - http://www.bohemiancoding.com/sketch -->
    <title>game_SVG</title>
    <desc>Created with Sketch.</desc>
    <defs>
        <linearGradient x1="49.9922561%" y1="99.9814192%" x2="49.9922561%" y2="-0.00879730921%" id="linearGradient-1">
            <stop stop-color="#808080" stop-opacity="0.25" offset="0%"></stop>
            <stop stop-color="#808080" stop-opacity="0.12" offset="54%"></stop>
            <stop stop-color="#808080" stop-opacity="0.1" offset="100%"></stop>
        </linearGradient>
        <linearGradient x1="50.0014203%" y1="100.007591%" x2="50.0014203%" y2="0%" id="linearGradient-2">
            <stop stop-color="#808080" stop-opacity="0.25" offset="0%"></stop>
            <stop stop-color="#808080" stop-opacity="0.12" offset="54%"></stop>
            <stop stop-color="#808080" stop-opacity="0.1" offset="100%"></stop>
        </linearGradient>
    </defs>
    <g id="Page-1" stroke="none" stroke-width="1" fill="none" fill-rule="evenodd">
        <g id="Desktop-HD-Copy" transform="translate(-781.000000, -287.000000)">
            <g id="game_SVG" transform="translate(724.000000, 272.000000)">
                <path d="M511.446675,248.601815 C492.097772,281.619759 494.733709,326.016164 502.26933,360.901604 C504.788001,372.581109 507.719653,384.883112 505.109208,398.088249 C501.917531,414.211986 491.190234,427.044644 480.437445,434.473809 C460.838714,448.020809 438.7621,448.117756 422.956671,434.728931 C409.297722,423.156578 400.55885,402.665145 386.59399,391.730598 C363.227449,373.43832 330.469424,385.515815 301.851402,403.67543 C281.605158,416.523395 259.288914,432.733874 240.985208,424.212785 C228.106333,418.217408 220.346378,400.6956 216.940563,381.520598 C215.29374,372.264757 214.391301,362.131294 210.337973,355.135837 C207.926371,350.977342 204.556245,348.232224 201.053559,345.997352 C169.050116,325.587558 124.851001,344.155368 94.061007,320.954535 C73.2641227,305.284915 61.9097071,272.266971 58.6619465,236.764135 C55.4141859,201.261298 59.4012327,163.120496 64.1989449,125.530758 C67.6098582,98.8296447 72.0812649,70.220216 85.4801891,48.2745851 C99.6540892,25.0584445 121.496171,14.3637124 140.258744,16.1291596 C159.021317,17.8946068 175.102065,30.4160154 188.873182,45.8152049 C206.080704,65.0718455 221.457857,89.7983109 244.100407,95.6508193 C259.523446,99.6358316 276.557618,94.2884656 293.087037,91.1147426 C320.715945,85.8081962 347.840099,86.5939732 374.765411,87.7981511 C400.543555,88.9513044 426.469555,90.5228586 450.325555,99.8144173 C467.206772,106.391473 479.983676,120.550768 495.702429,129.602512 C505.935169,135.500942 517.600595,136.031597 527.083852,143.986314 C538.769672,153.788117 548.686303,172.126317 543.470512,195.674117 C538.509647,218.078968 521.735499,231.074905 511.446675,248.601815 Z" id="Shape" fill="#48DEFF" fill-rule="nonzero" opacity="0.1"></path>
                <path d="M140.483079,352.696867 C140.483079,352.696867 106.465719,296.309709 116.010158,245.713829 C120.022697,224.477439 117.442844,202.506296 107.923897,183.106786 C103.392378,173.910118 98.0284017,165.148307 91.8992324,156.931226" id="Shape" stroke="#535461" stroke-width="1.02000007"></path>
                <path d="M97.7523393,125.01541 C99.7152715,132.505805 91.8635427,157.783335 91.8635427,157.783335 C91.8635427,157.783335 72.61661,139.62372 70.6485793,132.133326 C68.6774929,124.64307 73.146995,116.971907 80.6314916,114.999304 C88.1159883,113.026701 95.7812529,117.499642 97.7523393,124.989898 L97.7523393,125.01541 Z" id="Shape" fill="#48DEFF" fill-rule="nonzero"></path>
                <path d="M131.035512,160.620296 C128.618811,167.978027 108.296089,184.923258 108.296089,184.923258 C108.296089,184.923258 101.999411,159.21202 104.42121,151.854289 C105.932563,147.028917 109.923107,143.391805 114.864677,142.335771 C119.806248,141.279737 124.933184,142.968406 128.282144,146.755109 C131.631104,150.541812 132.683191,155.839826 131.035512,160.620296 Z" id="Shape" fill="#48DEFF" fill-rule="nonzero"></path>
                <path d="M148.650916,231.77394 C142.853893,236.876389 116.759641,241.264494 116.759641,241.264494 C116.759641,241.264494 124.295262,215.890018 130.092285,210.762057 C135.90364,205.764167 144.648904,206.365354 149.7228,212.111543 C154.796696,217.857732 154.316907,226.6172 148.645818,231.77394 L148.650916,231.77394 Z" id="Shape" fill="#48DEFF" fill-rule="nonzero"></path>
                <path d="M149.869464,288.615216 C145.020767,294.651413 120.043092,303.361292 120.043092,303.361292 C120.043092,303.361292 123.183783,277.073478 128.032481,271.042384 C132.894564,265.054195 141.677432,264.122563 147.685819,268.95768 C153.694206,273.792798 154.670053,282.577542 149.869464,288.615216 Z" id="Shape" fill="#48DEFF" fill-rule="nonzero"></path>
                <path d="M80.2236096,193.84744 C86.9587614,197.653867 113.364024,196.490509 113.364024,196.490509 C113.364024,196.490509 100.719681,173.238651 93.9896277,169.447532 C89.6212024,166.830947 84.1782811,166.791751 79.7726825,169.345151 C75.3670838,171.898552 72.692214,176.642663 72.7859053,181.736801 C72.8795965,186.830939 75.7271027,191.473327 80.2236096,193.862748 L80.2236096,193.84744 Z" id="Shape" fill="#48DEFF" fill-rule="nonzero"></path>
                <path d="M82.4873548,260.306832 C90.0535662,261.924308 114.924172,252.898077 114.924172,252.898077 C114.924172,252.898077 95.9168702,234.498648 88.3353632,232.876069 C80.7677994,231.259943 73.3239555,236.089258 71.7090725,243.662645 C70.0941896,251.236032 74.9197909,258.685604 82.4873548,260.30173 L82.4873548,260.306832 Z" id="Shape" fill="#48DEFF" fill-rule="nonzero"></path>
                <path d="M93.546056,324.597683 C100.729878,327.470361 126.768046,322.781211 126.768046,322.781211 C126.768046,322.781211 111.130869,301.427464 103.947047,298.554786 C96.8473226,296.004338 89.0043109,299.536977 86.2039959,306.546588 C83.4036808,313.556199 86.6513663,321.526354 93.5511545,324.577273 L93.546056,324.597683 Z" id="Shape" fill="#48DEFF" fill-rule="nonzero"></path>
                <path d="M97.7523393,125.01541 C99.7152715,132.505805 91.8635427,157.783335 91.8635427,157.783335 C91.8635427,157.783335 72.61661,139.62372 70.6485793,132.133326 C68.6774929,124.64307 73.146995,116.971907 80.6314916,114.999304 C88.1159883,113.026701 95.7812529,117.499642 97.7523393,124.989898 L97.7523393,125.01541 Z" id="Shape" fill="#48DEFF" fill-rule="nonzero"></path>
                <path d="M131.035512,160.620296 C128.618811,167.978027 108.296089,184.923258 108.296089,184.923258 C108.296089,184.923258 101.999411,159.21202 104.42121,151.854289 C105.932563,147.028917 109.923107,143.391805 114.864677,142.335771 C119.806248,141.279737 124.933184,142.968406 128.282144,146.755109 C131.631104,150.541812 132.683191,155.839826 131.035512,160.620296 Z" id="Shape" fill="#48DEFF" fill-rule="nonzero"></path>
                <path d="M148.650916,231.77394 C142.853893,236.876389 116.759641,241.264494 116.759641,241.264494 C116.759641,241.264494 124.295262,215.890018 130.092285,210.762057 C135.90364,205.764167 144.648904,206.365354 149.7228,212.111543 C154.796696,217.857732 154.316907,226.6172 148.645818,231.77394 L148.650916,231.77394 Z" id="Shape" fill="#FC6681" fill-rule="nonzero"></path>
                <path d="M149.869464,288.615216 C145.020767,294.651413 120.043092,303.361292 120.043092,303.361292 C120.043092,303.361292 123.183783,277.073478 128.032481,271.042384 C132.894564,265.054195 141.677432,264.122563 147.685819,268.95768 C153.694206,273.792798 154.670053,282.577542 149.869464,288.615216 Z" id="Shape" fill="#FC6681" fill-rule="nonzero"></path>
                <path d="M80.2236096,193.84744 C86.9587614,197.653867 113.364024,196.490509 113.364024,196.490509 C113.364024,196.490509 100.719681,173.238651 93.9896277,169.447532 C89.6212024,166.830947 84.1782811,166.791751 79.7726825,169.345151 C75.3670838,171.898552 72.692214,176.642663 72.7859053,181.736801 C72.8795965,186.830939 75.7271027,191.473327 80.2236096,193.862748 L80.2236096,193.84744 Z" id="Shape" fill="#48DEFF" fill-rule="nonzero"></path>
                <path d="M82.4873548,260.306832 C90.0535662,261.924308 114.924172,252.898077 114.924172,252.898077 C114.924172,252.898077 95.9168702,234.498648 88.3353632,232.876069 C80.7677994,231.259943 73.3239555,236.089258 71.7090725,243.662645 C70.0941896,251.236032 74.9197909,258.685604 82.4873548,260.30173 L82.4873548,260.306832 Z" id="Shape" fill="#48DEFF" fill-rule="nonzero"></path>
                <path d="M93.546056,324.597683 C100.729878,327.470361 126.768046,322.781211 126.768046,322.781211 C126.768046,322.781211 111.130869,301.427464 103.947047,298.554786 C96.8473226,296.004338 89.0043109,299.536977 86.2039959,306.546588 C83.4036808,313.556199 86.6513663,321.526354 93.5511545,324.577273 L93.546056,324.597683 Z" id="Shape" fill="#48DEFF" fill-rule="nonzero"></path>
                <ellipse id="Oval" fill="#48DEFF" fill-rule="nonzero" opacity="0.1" cx="310.483205" cy="359.125952" rx="244.984136" ry="16.83808"></ellipse>
                <path d="M521.291927,344.70133 C521.291927,344.70133 520.884045,344.155368 520.318109,343.543074 L520.481262,343.486947 C520.481262,343.486947 513.200568,325.276309 514.821899,317.586919 C516.44323,309.897529 508.35187,291.283797 508.35187,291.283797 C508.35187,291.283797 496.416223,266.822659 502.065389,247.300691 C502.710362,245.001443 503.197556,242.660769 503.523567,240.295029 C505.211179,228.732881 504.614651,226.350037 501.78497,222.12521 L501.47396,221.671092 C501.82314,221.330973 502.099028,220.9229 502.284625,220.472017 C504.711523,213.99701 490.965899,202.261378 494.621542,191.331933 C497.996766,181.203573 489.212007,160.303944 487.906784,157.298602 L487.758927,156.956738 L487.320454,157.099606 C487.393897,154.48978 488.42056,151.997391 490.206219,150.093945 L490.287795,150.012306 C491.501244,148.894869 492.974718,148.073375 494.111689,146.8743 L494.17797,146.797763 C494.290138,146.690612 494.407404,146.58346 494.514473,146.471206 C495.641247,145.287438 496.411124,143.532196 495.799301,142.011666 C495.243562,140.6238 493.683413,139.776794 493.316319,138.327698 C493.227928,137.676159 493.17347,137.020459 493.153167,136.363256 C492.857452,134.322276 490.874126,133.041562 489.074346,132.031277 C486.836094,130.76587 484.485674,129.480053 481.900721,129.449438 C478.403133,129.449438 475.272639,131.796564 471.800543,132.087404 C470.617685,132.189453 469.388941,132.046584 468.267265,132.439473 C467.412398,132.79561 466.627069,133.299988 465.947436,133.929388 C465.54785,134.243937 465.169717,134.58486 464.815563,134.949878 C464.030391,135.68463 463.362484,136.552046 463.393075,137.592946 C463.449829,138.353007 463.805552,139.059496 464.382189,139.557389 C462.116707,142.641191 461.330414,146.569986 462.234392,150.289087 C463.138369,154.008189 465.640004,157.136578 469.067733,158.834439 C469.108522,159.115074 469.14931,159.400811 469.190098,159.701855 C469.699951,163.533794 470.000764,168.952594 468.639457,173.197831 C462.832237,176.192969 453.782355,181.076012 452.161024,183.244553 C451.906348,183.615903 451.828016,184.080655 451.946886,184.515062 C451.900948,184.714065 451.890591,184.919636 451.916295,185.122254 C450.646762,185.413093 448.95915,185.122254 446.904444,183.244553 C442.050648,178.795217 426.688792,165.437007 426.688792,165.437007 C426.688792,165.437007 419.81598,148.440751 414.962184,151.660396 C410.108388,154.880041 420.621547,170.682324 420.621547,170.682324 L443.63629,195.378175 C443.63629,195.378175 444.446955,200.638799 452.936,197.80694 C455.740189,196.873192 458.274156,195.980264 460.415536,195.209794 L460.925389,195.643502 C459.013442,206.838274 458.024328,221.757834 465.075588,226.135735 C465.627649,226.868333 466.02648,227.704786 466.248249,228.595115 C466.212559,228.727778 466.17687,228.865544 466.146279,228.998208 C465.605852,231.232442 465.264611,233.510265 465.126573,235.804874 C463.797441,238.846264 463.185129,242.15285 463.336991,245.468912 L460.634773,283.9975 C460.634773,283.9975 460.231989,292.493077 463.061671,298.968084 C465.891352,305.443091 474.788279,337.818127 468.721034,340.246892 L469.297167,340.323429 C467.55857,342.114389 464.632017,344.828891 462.403961,345.364648 C459.01854,346.170835 459.966866,351.365128 467.471895,352.232544 C474.976924,353.09996 475.879363,353.028526 481.156337,348.625113 C485.806192,344.747252 486.545478,343.01242 486.652547,342.639941 L486.91767,342.675658 C486.91767,342.675658 484.087989,332.154409 486.91767,327.705074 C489.747352,323.255739 480.45274,296.14643 480.45274,296.14643 C480.374745,292.682444 480.502434,289.216881 480.83513,285.76805 C482.262717,289.508145 483.282422,292.100189 483.282422,292.100189 C483.282422,292.100189 485.70932,303.83582 488.539001,305.876799 C491.368683,307.917779 506.332854,335.82307 503.905956,347.961795 L503.625537,349.375173 L504.30874,349.176177 L504.369922,349.176177 C503.436892,351.487587 501.739083,355.14094 499.862826,356.482884 C497.033144,358.523863 499.862826,362.957891 507.14352,360.932219 C514.424214,358.906547 515.229781,358.503453 518.467344,352.436642 C521.704908,346.369831 521.291927,344.70133 521.291927,344.70133 Z" id="Shape" fill="url(#linearGradient-1)" fill-rule="nonzero"></path>
                <path d="M467.706427,236.651881 L465.93214,234.46293 C464.117526,237.837158 463.252296,241.641103 463.428765,245.468912 L460.787729,283.140289 C460.787729,283.140289 460.390044,291.447075 463.158543,297.779214 C465.927042,304.111352 474.625126,335.76184 468.695541,338.134479 L486.463901,340.537732 C486.463901,340.537732 483.695402,330.251196 486.463901,325.898807 C489.232401,321.546419 480.136632,295.039199 480.136632,295.039199 C480.136632,295.039199 479.34636,272.884368 486.856488,267.735997 C494.366616,262.587627 467.706427,236.651881 467.706427,236.651881 Z" id="Shape" fill="#555388" fill-rule="nonzero"></path>
                <path d="M470.70436,336.649666 C470.70436,336.649666 465.825071,342.354204 462.521227,343.145083 C459.217383,343.935963 460.140216,349.007797 467.476994,349.859905 C474.813771,350.712014 475.695816,350.64058 480.860622,346.334114 C486.025428,342.027647 486.254862,340.410171 486.254862,340.410171 C486.254862,340.410171 485.235157,336.583334 484.001314,336.501695 C482.767471,336.420056 470.70436,336.649666 470.70436,336.649666 Z" id="Shape" fill="#603556" fill-rule="nonzero"></path>
                <path d="M468.894384,237.840751 L465.937239,234.46293 C464.122625,237.837158 463.257395,241.641103 463.433863,245.468912 L460.792827,283.140289 C460.792827,283.140289 460.395142,291.447075 463.163641,297.779214 C465.93214,304.111352 474.630224,335.76184 468.70064,338.134479 L486.463901,340.537732 C486.463901,340.537732 483.695402,330.251196 486.463901,325.898807 C489.232401,321.546419 480.136632,295.039199 480.136632,295.039199 C480.136632,295.039199 479.34636,272.884368 486.856488,267.735997 C494.366616,262.587627 468.894384,237.840751 468.894384,237.840751 Z" id="Shape" fill="#000000" fill-rule="nonzero" opacity="0.1"></path>
                <path d="M486.494493,289.472428 C486.494493,289.472428 481.554022,192.418755 461.272088,158.069072 C461.272088,158.069072 446.39969,130.883226 433.969486,122.954021 L433.969486,119.821118 C413.687553,105.768975 388.730272,119.821118 388.730272,119.821118 L388.730272,121.208984 L383.529776,125.546065 L360.11225,125.464426 C357.966581,122.87613 354.77975,121.379692 351.419264,121.382467 L244.564373,121.382467 C241.406704,121.378978 238.392197,122.700459 236.253777,125.025615 L211.933811,125.025615 C211.933811,125.025615 210.501126,123.357115 206.733316,121.678409 L206.733316,119.821118 C186.451382,105.768975 161.494102,119.821118 161.494102,119.821118 L161.494102,123.591827 C160.901155,123.983662 160.374484,124.467677 159.933953,125.025615 C159.933953,125.025615 139.391995,138.802226 134.711549,155.987273 C134.711549,155.987273 109.489144,231.707608 108.969095,291.033777 C108.449045,350.359945 131.331226,358.687141 143.287268,360.248491 C155.24331,361.80984 176.565342,359.738246 197.367325,307.183026 L206.208168,276.481594 C206.208168,276.481594 207.768316,258.265853 226.490101,269.715747 C245.211885,281.165641 261.848373,263.47035 261.848373,263.47035 L332.055065,263.47035 C332.055065,263.47035 355.431804,278.022533 376.77423,266.552229 C376.77423,266.552229 385.095023,255.622784 392.895767,292.574716 C392.895767,292.574716 416.818047,368.555277 453.736468,360.748531 C490.654889,352.941784 486.494493,289.472428 486.494493,289.472428 Z" id="Shape" fill="url(#linearGradient-2)" fill-rule="nonzero"></path>
                <path d="M164.155532,127.729913 L164.155532,122.11722 C164.155532,122.11722 188.628453,108.340609 208.512701,122.11722 L208.512701,127.219668 L164.155532,127.729913 Z" id="Shape" fill="#535461" fill-rule="nonzero"></path>
                <path d="M386.961083,127.729913 L386.961083,122.11722 C386.961083,122.11722 411.434004,108.340609 431.318253,122.11722 L431.318253,127.219668 L386.961083,127.729913 Z" id="Shape" fill="#535461" fill-rule="nonzero"></path>
                <path d="M164.155532,127.729913 L164.155532,122.11722 C164.155532,122.11722 188.628453,108.340609 208.512701,122.11722 L208.512701,127.219668 L164.155532,127.729913 Z" id="Shape" fill="#000000" fill-rule="nonzero" opacity="0.1"></path>
                <path d="M386.961083,127.729913 L386.961083,122.11722 C386.961083,122.11722 411.434004,108.340609 431.318253,122.11722 L431.318253,127.219668 L386.961083,127.729913 Z" id="Shape" fill="#000000" fill-rule="nonzero" opacity="0.1"></path>
                <path d="M237.574295,127.219668 L213.611226,127.219668 C213.611226,127.219668 207.492996,120.07624 187.098895,120.586485 C166.704794,121.09673 162.625974,127.219668 162.625974,127.219668 C162.625974,127.219668 142.4868,140.741157 137.898127,157.579237 C137.898127,157.579237 113.17028,231.819862 112.660427,289.987775 C112.150575,348.155688 134.584085,356.319605 146.310693,357.85034 C158.037301,359.381074 178.941255,357.340095 199.335356,305.805365 L208.002848,275.700919 C208.002848,275.700919 209.532406,257.842349 227.887097,269.067736 C246.241788,280.293123 262.557068,262.944798 262.557068,262.944798 L331.387159,262.944798 C331.387159,262.944798 354.330522,277.231654 375.234475,266.006267 C375.234475,266.006267 383.392116,255.291125 391.039904,291.518509 C391.039904,291.518509 414.49312,366.014257 450.692649,358.360585 C486.892178,350.706912 482.813357,288.45704 482.813357,288.45704 C482.813357,288.45704 477.969758,193.296376 458.08551,159.620216 C458.08551,159.620216 438.966041,124.668444 426.219728,123.137709 C426.219728,123.137709 398.687691,118.035261 387.980788,122.627464 L381.862558,127.729913 L237.574295,127.219668 Z" id="Shape" fill="#535461" fill-rule="nonzero"></path>
                <ellipse id="Oval" fill="#E2E2EC" fill-rule="nonzero" cx="182.00037" cy="177.223663" rx="44.3571693" ry="44.3913018"></ellipse>
                <ellipse id="Oval" fill="#E2E2EC" fill-rule="nonzero" cx="413.473415" cy="177.223663" rx="44.3571693" ry="44.3913018"></ellipse>
                <path d="M189.729734,167.324913 L183.815445,172.560025 C182.779259,173.472945 181.226579,173.472945 180.190393,172.560025 L174.265907,167.324913 C173.679861,166.808189 173.342232,166.065576 173.337976,165.283934 L173.337976,150.879722 C173.340788,149.365628 174.56805,148.139704 176.080982,148.139707 L187.935053,148.139707 C188.662959,148.138349 189.361442,148.42713 189.87615,148.942234 C190.390858,149.457338 190.679417,150.156358 190.67806,150.884824 L190.67806,165.273729 C190.671569,166.062159 190.326013,166.80958 189.729734,167.324913 Z" id="Shape" fill="#535461" fill-rule="nonzero"></path>
                <path d="M189.729734,187.117311 L183.815445,181.887301 C182.779259,180.974382 181.226579,180.974382 180.190393,181.887301 L174.265907,187.122413 C173.679861,187.639138 173.342232,188.38175 173.337976,189.163393 L173.337976,203.552297 C173.336619,204.280763 173.625178,204.979784 174.139886,205.494888 C174.654593,206.009992 175.353076,206.298773 176.080982,206.297415 L187.935053,206.297415 C188.662075,206.29877 189.359783,206.010689 189.874343,205.496689 C190.388904,204.98269 190.678061,204.284982 190.67806,203.5574 L190.67806,189.168495 C190.671569,188.380065 190.326013,187.632644 189.729734,187.117311 Z" id="Shape" fill="#535461" fill-rule="nonzero"></path>
                <path d="M172.11433,184.96918 L177.345416,179.040135 C178.257634,178.003152 178.257634,176.449277 177.345416,175.412294 L172.11433,169.483249 C171.597606,168.897287 170.855818,168.559513 170.074919,168.554603 L155.697078,168.554603 C154.184149,168.557418 152.959168,169.785625 152.95917,171.299721 L152.95917,183.162913 C152.957814,183.891379 153.246372,184.5904 153.76108,185.105504 C154.275788,185.620608 154.974271,185.909388 155.702177,185.908031 L170.080018,185.908031 C170.860878,185.899737 171.601042,185.558146 172.11433,184.96918 Z" id="Shape" fill="#535461" fill-rule="nonzero"></path>
                <path d="M191.891509,184.96918 L186.670619,179.035033 C185.756136,177.998906 185.756136,176.443318 186.670619,175.407192 L191.901706,169.478146 C192.418033,168.891649 193.160075,168.55376 193.941116,168.549501 L208.318957,168.549501 C209.046863,168.548143 209.745346,168.836924 210.260054,169.352028 C210.774762,169.867132 211.06332,170.566152 211.061964,171.294618 L211.061964,183.157811 C211.063317,183.885392 210.775458,184.583637 210.261854,185.098593 C209.74825,185.61355 209.051078,185.902929 208.324056,185.902928 L193.946214,185.902928 C193.15903,185.901756 192.410434,185.561562 191.891509,184.96918 Z" id="Shape" fill="#535461" fill-rule="nonzero"></path>
                <polygon id="Shape" stroke="#535461" stroke-width="1.02000007" points="174.352582 144.567993 189.648158 144.567993 182.00037 137.93481"></polygon>
                <polygon id="Shape" stroke="#535461" stroke-width="1.02000007" points="174.352582 209.879334 189.648158 209.879334 182.00037 216.512517"></polygon>
                <polygon id="Shape" stroke="#535461" stroke-width="1.02000007" points="149.369809 169.569991 149.369809 184.877336 142.741726 177.223663"></polygon>
                <polygon id="Shape" stroke="#535461" stroke-width="1.02000007" points="214.630931 169.569991 214.630931 184.877336 221.259014 177.223663"></polygon>
                <ellipse id="Oval" fill="#E2E2EC" fill-rule="nonzero" cx="242.162967" cy="225.696924" rx="32.1207088" ry="32.1454255"></ellipse>
                <ellipse id="Oval" fill="#535461" fill-rule="nonzero" cx="241.143262" cy="220.594475" rx="21.4138059" ry="21.4302837"></ellipse>
                <ellipse id="Oval" fill="#E2E2EC" fill-rule="nonzero" cx="353.310817" cy="225.696924" rx="32.1207088" ry="32.1454255"></ellipse>
                <ellipse id="Oval" fill="#535461" fill-rule="nonzero" cx="352.291112" cy="220.594475" rx="21.4138059" ry="21.4302837"></ellipse>
                <ellipse id="Oval" stroke="#000000" stroke-width="1.02000007" opacity="0.1" cx="241.143262" cy="220.594475" rx="14.2758706" ry="14.2868558"></ellipse>
                <ellipse id="Oval" stroke="#000000" stroke-width="1.02000007" opacity="0.1" cx="352.291112" cy="220.594475" rx="14.2758706" ry="14.2868558"></ellipse>
                <ellipse id="Oval" fill="#E2E2EC" fill-rule="nonzero" cx="298.756597" cy="229.268638" rx="9.17734538" ry="9.18440728"></ellipse>
                <ellipse id="Oval" fill="#E2E2EC" fill-rule="nonzero" cx="284.730554" cy="198.613127" rx="2.00372041" ry="2.00526226"></ellipse>
                <ellipse id="Oval" fill="#E2E2EC" fill-rule="nonzero" cx="292.235584" cy="198.613127" rx="2.00372041" ry="2.00526226"></ellipse>
                <ellipse id="Oval" fill="#E2E2EC" fill-rule="nonzero" cx="291.236273" cy="208.129194" rx="2.00372041" ry="2.00526226"></ellipse>
                <ellipse id="Oval" fill="#E2E2EC" fill-rule="nonzero" cx="298.246745" cy="208.348599" rx="2.03941008" ry="2.0409794"></ellipse>
                <ellipse id="Oval" fill="#E2E2EC" fill-rule="nonzero" cx="305.24702" cy="208.129194" rx="2.00372041" ry="2.00526226"></ellipse>
                <ellipse id="Oval" fill="#E2E2EC" fill-rule="nonzero" cx="288.233241" cy="203.623732" rx="2.00372041" ry="2.00526226"></ellipse>
                <ellipse id="Oval" fill="#E2E2EC" fill-rule="nonzero" cx="294.677777" cy="203.756395" rx="2.03941008" ry="2.0409794"></ellipse>
                <ellipse id="Oval" fill="#E2E2EC" fill-rule="nonzero" cx="301.30586" cy="203.756395" rx="2.03941008" ry="2.0409794"></ellipse>
                <ellipse id="Oval" fill="#E2E2EC" fill-rule="nonzero" cx="308.250051" cy="203.623732" rx="2.00372041" ry="2.00526226"></ellipse>
                <ellipse id="Oval" fill="#E2E2EC" fill-rule="nonzero" cx="298.246745" cy="198.653947" rx="2.03941008" ry="2.0409794"></ellipse>
                <ellipse id="Oval" fill="#E2E2EC" fill-rule="nonzero" cx="305.38468" cy="198.653947" rx="2.03941008" ry="2.0409794"></ellipse>
                <ellipse id="Oval" fill="#E2E2EC" fill-rule="nonzero" cx="311.253083" cy="198.613127" rx="2.00372041" ry="2.00526226"></ellipse>
                <rect id="Rectangle-path" fill="#E2E2EC" fill-rule="nonzero" x="218.199899" y="130.791382" width="11.2167555" height="19.3893043" rx="4.33500029"></rect>
                <rect id="Rectangle-path" fill="#E2E2EC" fill-rule="nonzero" x="367.076835" y="130.791382" width="11.2167555" height="19.3893043" rx="4.33500029"></rect>
                <ellipse id="Oval" fill="#535461" fill-rule="nonzero" cx="413.983267" cy="150.180686" rx="12.2364605" ry="12.2458764"></ellipse>
                <ellipse id="Oval" fill="#535461" fill-rule="nonzero" cx="387.980788" cy="176.203174" rx="12.2364605" ry="12.2458764"></ellipse>
                <ellipse id="Oval" fill="#535461" fill-rule="nonzero" cx="441.005451" cy="174.672439" rx="12.2364605" ry="12.2458764"></ellipse>
                <ellipse id="Oval" fill="#535461" fill-rule="nonzero" cx="416.022677" cy="201.715416" rx="12.2364605" ry="12.2458764"></ellipse>
                <rect id="Rectangle-path" fill="#E2E2EC" fill-rule="nonzero" x="234.51518" y="123.647954" width="126.953278" height="67.8625649" rx="11.0925008"></rect>
                <polygon id="Shape" stroke="#E2E2EC" stroke-width="1.02000007" points="406.590406 155.283135 413.728341 143.037258 421.376129 155.283135"></polygon>
                <rect id="Rectangle-path" stroke="#E2E2EC" stroke-width="1.02000007" x="381.607632" y="170.59048" width="12.746313" height="11.2253867"></rect>
                <ellipse id="Oval" stroke="#E2E2EC" stroke-width="1.02000007" cx="441.005451" cy="174.672439" rx="7.1379353" ry="7.14342788"></ellipse>
                <path d="M410.159373,195.975161 L421.631055,207.455671" id="Shape" stroke="#E2E2EC" stroke-width="1.02000007"></path>
                <path d="M421.885981,195.975161 L410.159373,207.200548" id="Shape" stroke="#E2E2EC" stroke-width="1.02000007"></path>
                <path d="M232.88875,355.069505 C234.418308,353.901045 235.871387,352.518281 236.314959,350.84978 C236.786791,349.009122 235.735904,347.121003 233.923751,346.553519 C231.726286,345.869791 229.380965,347.109686 227.596481,348.364888 C225.811997,349.62009 223.777685,351.053878 221.447659,350.788551 C223.859262,349.043514 225.016627,346.196347 224.343622,343.645123 C224.230197,343.089285 223.94901,342.58169 223.538055,342.190925 C222.319507,341.124514 220.106747,341.583734 218.648569,342.420536 C214.003813,345.089116 212.708787,350.237487 212.683295,354.875612 C212.21423,353.202009 212.611915,351.462074 212.59662,349.742549 C212.581324,348.023024 212.010289,346.124913 210.236003,345.20137 C209.101064,344.710626 207.872232,344.47547 206.636444,344.512539 C204.551147,344.45131 202.221121,344.619691 200.798632,345.869791 C199.029444,347.400525 199.488311,350.018081 201.028066,351.722299 C202.567821,353.426517 204.913142,354.498031 207.069818,355.676697 C208.716642,356.574728 210.378761,357.62073 211.388269,359.03921 C211.517428,359.227298 211.625166,359.429249 211.709476,359.641299 L224.797391,359.641299 C227.672894,358.45778 230.390732,356.922142 232.88875,355.069505 Z" id="Shape" fill="#48DEFF" fill-rule="nonzero"></path>
                <path d="M504.278149,344.869711 C504.278149,344.869711 501.907334,352.013139 499.138835,353.972479 C496.370336,355.931819 499.138835,360.304617 506.27677,358.324867 C513.414706,356.345117 514.184583,355.952229 517.345669,350.018081 C520.506754,344.083934 520.114168,342.502175 520.114168,342.502175 C520.114168,342.502175 517.743354,339.338657 516.5452,339.731545 C515.347047,340.124434 504.278149,344.869711 504.278149,344.869711 Z" id="Shape" fill="#603556" fill-rule="nonzero"></path>
                <path d="M489.65048,167.212659 C489.65048,167.212659 457.626643,185.015102 465.136771,179.871834 C470.18431,176.417476 469.878399,167.248376 469.134014,161.599966 C468.899482,159.839621 468.624162,158.421141 468.45591,157.625159 C468.359038,157.176143 468.297856,156.926123 468.297856,156.926123 C468.297856,156.926123 483.827964,147.598847 482.956116,153.206438 C482.956116,153.257463 482.956116,153.308487 482.930624,153.359512 C482.855693,153.734233 482.816428,154.115219 482.813357,154.497358 C482.706288,160.263125 489.65048,167.212659 489.65048,167.212659 Z" id="Shape" fill="#C87486" fill-rule="nonzero"></path>
                <path d="M454.853045,184.622214 C454.853045,184.622214 452.084546,188.974602 447.342918,184.622214 C442.601289,180.269825 427.575935,167.212659 427.575935,167.212659 C427.575935,167.212659 420.856079,150.593985 416.104254,153.762605 C411.352428,156.931226 421.641252,172.36103 421.641252,172.36103 L444.176733,196.495611 C444.176733,196.495611 444.967005,201.638879 453.272502,198.86825 C461.578,196.09762 467.507585,193.724982 467.507585,193.724982 L454.853045,184.622214 Z" id="Shape" fill="#C87486" fill-rule="nonzero"></path>
                <g id="Group" transform="translate(0.574449, 0.714663)"></g>
                <path d="M519.303502,341.308202 L503.498074,346.849461 L502.830167,347.043354 L503.105488,345.66059 C505.476302,333.792295 490.869027,306.489093 488.080134,304.509343 C485.291241,302.529593 482.930624,291.043982 482.930624,291.043982 C482.930624,291.043982 477.750522,264.92965 476.96025,259.408801 C476.761408,258.026038 476.037417,256.923909 475.160471,255.403379 C473.837878,253.099003 472.810109,250.637316 472.101356,248.076263 C470.362759,241.953325 466.309431,231.08511 467.798201,224.936659 C468.099014,223.686559 466.870269,226.880692 467.288348,225.661207 L467.527979,224.987684 L499.53652,220.630193 C500.067615,221.275528 500.564553,221.948273 501.025289,222.64566 C503.447089,226.242886 503.289035,226.242886 503.798887,233.080167 C503.578731,237.205195 502.996963,241.302899 502.06029,245.326043 C497.752036,264.526557 507.469825,290.22759 507.469825,290.22759 C507.469825,290.22759 515.377638,308.428024 513.797095,315.94393 C512.216552,323.459837 519.303502,341.308202 519.303502,341.308202 Z" id="Shape" fill="#555388" fill-rule="nonzero"></path>
                <path d="M501.025289,222.640557 C496.28876,228.58491 465.947436,233.202626 466.324727,231.31472 C466.438472,230.663167 466.38943,229.993575 466.181968,229.365584 C466.483542,228.111634 466.847693,226.873589 467.273053,225.656104 L467.512683,224.982581 L499.53652,220.630193 C500.06747,221.273872 500.564405,221.944911 501.025289,222.640557 Z" id="Shape" fill="#000000" fill-rule="nonzero" opacity="0.1"></path>
                <path d="M487.279666,158.890566 C487.279666,158.890566 474.227441,162.860271 470.658473,171.963039 C467.089506,181.065807 473.36579,181.560745 473.36579,181.560745 C473.36579,181.560745 462.149035,211.154946 465.121475,226.56434 C465.121475,226.56434 466.702018,228.54409 466.309431,230.518738 C465.916845,232.493385 499.12354,227.35522 501.489255,221.023081 C503.854971,214.690943 490.420357,203.220638 493.979128,192.536111 C497.537898,181.851584 487.279666,158.890566 487.279666,158.890566 Z" id="Shape" fill="#DFE5EE" fill-rule="nonzero"></path>
                <path d="M482.930624,154.155494 C482.90829,154.274532 482.868788,154.38969 482.813357,154.497358 C482.272914,155.517847 480.554711,154.400411 481.151238,155.931146 C478.856902,158.237452 478.132911,162.855168 474.630224,162.855168 C472.72551,162.860875 470.844394,162.433416 469.128916,161.605068 C468.894384,159.844724 468.619063,158.426243 468.450812,157.630261 C469.980369,156.722025 482.21683,149.629622 482.951018,153.211541 C483.008039,153.524337 483.001101,153.845456 482.930624,154.155494 Z" id="Shape" fill="#000000" fill-rule="nonzero" opacity="0.1"></path>
                <ellipse id="Oval" fill="#C87486" fill-rule="nonzero" cx="474.625126" cy="149.410217" rx="12.6494411" ry="12.6591747"></ellipse>
                <path d="M487.279666,189.765482 L465.141869,200.052018 C465.141869,200.052018 450.116515,188.581714 452.487329,185.423298 C454.858144,182.264882 473.442268,173.177422 473.442268,173.177422 C473.442268,173.177422 492.418979,177.106307 487.279666,189.765482 Z" id="Shape" fill="#000000" fill-rule="nonzero" opacity="0.1"></path>
                <path d="M487.279666,188.995012 L465.141869,199.281548 C465.141869,199.281548 450.116515,187.806141 452.492428,184.642623 C454.868341,181.479105 473.447367,172.396747 473.447367,172.396747 C473.447367,172.396747 492.418979,176.315427 487.279666,188.995012 Z" id="Shape" fill="#DFE5EE" fill-rule="nonzero"></path>
                <path d="M470.974582,143.986314 C469.042241,143.792421 467.043619,143.578118 465.366204,142.60355 C464.392386,142.042281 463.500144,141.113635 463.469553,139.985994 C463.433863,138.659358 464.55044,137.623561 465.575244,136.781657 C466.240102,136.167057 467.008174,135.674767 467.844087,135.327459 C468.94027,134.944775 470.138424,135.082541 471.295789,134.985595 C474.701604,134.699858 477.750522,132.383346 481.171632,132.403756 C483.685205,132.403756 485.994837,133.689573 488.182104,134.929468 C489.930899,135.919343 491.873437,137.174545 492.164053,139.1645 C492.183481,139.806316 492.236237,140.446687 492.322107,141.083021 C492.684102,142.501501 494.208561,143.328098 494.754103,144.685349 C495.350631,146.170162 494.596049,147.889687 493.494768,149.047943 C492.393486,150.206199 490.945505,151.002181 489.78814,152.0839 C487.615872,154.099465 486.406478,156.94707 486.463901,159.911056 C486.489649,160.104256 486.459572,160.300794 486.377227,160.477427 C486.199976,160.691523 485.940928,160.821146 485.663433,160.834599 C484.404097,161.069311 482.849047,161.196873 482.094465,160.155973 C481.339884,159.115074 481.936411,157.380241 481.07476,156.354649 C479.978577,155.033115 477.674044,156.084219 476.190373,155.216803 C475.690312,154.892362 475.299453,154.424749 475.068698,153.874859 C473.845052,151.236893 475.247146,149.165299 475.756999,146.64469 C476.353526,143.700577 473.049682,144.195514 470.974582,143.986314 Z" id="Shape" fill="#000000" fill-rule="nonzero" opacity="0.1"></path>
                <path d="M471.372267,143.58322 C469.439926,143.389327 467.441304,143.175025 465.763889,142.200457 C464.790071,141.639188 463.897829,140.710542 463.867238,139.582901 C463.831548,138.256264 464.948125,137.220467 465.972929,136.378563 C466.637787,135.763963 467.405859,135.271674 468.241772,134.924365 C469.337955,134.541682 470.536109,134.679448 471.693474,134.582501 C475.099289,134.296764 478.148207,131.980253 481.569317,132.000662 C484.08289,132.000662 486.392522,133.286479 488.579789,134.526374 C490.328584,135.516249 492.271122,136.771452 492.561738,138.761407 C492.581166,139.403222 492.633922,140.043593 492.719792,140.679927 C493.081787,142.098408 494.606246,142.925005 495.151788,144.282256 C495.748316,145.767068 494.993734,147.486594 493.892453,148.644849 C492.791171,149.803105 491.34319,150.599087 490.185825,151.680806 C488.006306,153.700222 486.794513,156.556536 486.856488,159.528372 C486.882235,159.721572 486.852158,159.918111 486.769813,160.094744 C486.592563,160.308839 486.333514,160.438463 486.056019,160.451915 C484.796684,160.686628 483.241634,160.814189 482.487052,159.773289 C481.73247,158.73239 482.328998,156.997557 481.467347,155.971965 C480.371164,154.650431 478.06663,155.701536 476.58296,154.834119 C476.082898,154.509678 475.69204,154.042065 475.461284,153.492175 C474.227441,150.849107 475.634634,148.762206 476.144486,146.216084 C476.746112,143.302586 473.442268,143.802626 471.372267,143.58322 Z" id="Shape" fill="#603456" fill-rule="nonzero"></path>
            </g>
        </g>
    </g>
</svg>